<?xml version="1.0" encoding="UTF-8"?>
<svg xmlns="http://www.w3.org/2000/svg" viewBox="0 0 3000 3000" width="3000" height="3000">
  <path d="M696.0 814.0H2304.0Q2395.0 814.0 2473.5 859.5Q2552.0 905.0 2598.0 983.5Q2644.0 1062.0 2644.0 1154.0V1846.0Q2644.0 1937.0 2598.5 2015.5Q2553.0 2094.0 2474.5 2140.0Q2396.0 2186.0 2304.0 2186.0H696.0Q605.0 2186.0 526.5 2140.5Q448.0 2095.0 402.0 2016.5Q356.0 1938.0 356.0 1846.0V1154.0Q356.0 1064.0 402.0 985.0Q448.0 906.0 526.0 860.0Q604.0 814.0 696.0 814.0ZM968.0 1511.0Q968.0 1640.0 1045.0 1757.0Q1122.0 1874.0 1246.0 1950.0Q1370.0 2026.0 1500.0 2026.0Q1628.0 2026.0 1751.0 1951.5Q1874.0 1877.0 1948.5 1757.0Q2023.0 1637.0 2023.0 1511.0Q2023.0 1372.0 1953.5 1250.0Q1884.0 1128.0 1762.0 1056.0Q1640.0 984.0 1496.0 984.0Q1350.0 984.0 1230.0 1054.5Q1110.0 1125.0 1039.0 1247.0Q968.0 1369.0 968.0 1511.0Z" fill="black"/>
</svg>
